# xmcd
#
# Track frame offsets:
#	150
#	17176
#	38368
#	54645
#	71010
#	85482
#	108844
#	131293
#	149266
#	164465
#	186686
#	206160
#
# Disc length: 2790 seconds
#
# Revision: 0
# Processed by: cddbd v1.5.2PL0 Copyright (c) Steve Scherf et al.
# Submitted via: EasyCDDAExtractor 12.0.1.1
#
DISCID=ad0ae40c
DTITLE=Captain Beefheart and His Magic Band - Shiny Beast
DYEAR=1978
DGENRE=Classic Rock
TTITLE0=The Floppy Boot Stomp
TTITLE1=Tropical Hot Dog Night
TTITLE2=Ice Rose
TTITLE3=Harry Irene
TTITLE4=You Know Youre a Man
TTITLE5=Bat Chain Puller
TTITLE6=When I See Mommy
TTITLE7=Owed T Alex
TTITLE8=Candle Mambo
TTITLE9=Love Lies
TTITLE10=Suction Prints
TTITLE11=Apes Ma
EXTD=
EXTT0=
EXTT1=
EXTT2=
EXTT3=
EXTT4=
EXTT5=
EXTT6=
EXTT7=
EXTT8=
EXTT9=
EXTT10=
EXTT11=
PLAYORDER=
